<svg width="189" height="48" viewBox="0 0 189 48" fill="none" xmlns="http://www.w3.org/2000/svg">
<path d="M46.125 23.1L37.425 8C36.325 6.1 34.325 5 32.225 5H14.825C12.625 5 10.725 6.1 9.625 8L0.825 23.1C-0.275 25 -0.275 27.2 0.825 29.1L9.525 44.2C10.625 46.1 12.525 47.2 14.725 47.2H32.125C34.225 47.2 36.225 46.1 37.325 44.2L46.025 29.1C47.225 27.2 47.225 25 46.125 23.1ZM11.725 28.9C11.625 28.8 11.525 28.7 11.525 28.5V25.2C11.525 25 11.625 24.9 11.725 24.8C11.825 24.7 11.925 24.6 12.125 24.6H17.825L15.325 28.9H12.125C11.925 29.1 11.825 29 11.725 28.9ZM15.625 35.1L13.825 36.4C13.725 36.5 13.625 36.5 13.525 36.5C13.425 36.4 13.425 36.3 13.425 36.1L13.625 34C13.625 33.8 13.725 33.8 13.825 33.7C13.925 33.6 14.025 33.6 14.125 33.7L15.525 34.5C15.625 34.6 15.725 34.7 15.725 34.8C15.825 35 15.825 35.1 15.625 35.1ZM16.525 34C16.325 34.1 16.225 34 16.125 33.9L14.725 33.1C14.625 33 14.525 32.9 14.525 32.8C14.525 32.7 14.525 32.5 14.625 32.4L21.125 21C21.225 20.9 21.325 20.8 21.425 20.8C21.625 20.8 21.725 20.8 21.825 20.9L23.225 21.7C23.325 21.8 23.425 21.9 23.525 22C23.525 22.2 23.525 22.3 23.425 22.4L16.825 33.7C16.725 33.9 16.625 34 16.525 34ZM21.125 29.1L23.625 24.8H25.025L27.025 29.1H21.125ZM29.225 30.4C29.025 30.3 28.325 29 27.225 26.7C26.525 25.1 25.825 23.5 25.125 21.9L24.625 20.7C23.925 19.2 23.425 18.1 23.225 17.4C22.725 16.2 22.725 15.5 22.925 15.3C23.125 15.2 23.425 15.5 23.825 16.2C24.125 16.6 24.625 17.4 25.225 18.6C25.825 19.6 26.225 20.3 26.525 20.7C27.325 21.9 28.725 24.4 30.725 28.3L31.025 28.9C31.225 29.2 31.225 29.4 30.925 29.8C30.725 30 30.525 30.2 30.325 30.3L30.225 30.4C30.025 30.5 29.925 30.5 29.825 30.6C29.625 30.5 29.425 30.5 29.225 30.4ZM31.025 33.3L30.125 32C30.025 31.8 30.025 31.7 30.025 31.6C30.125 31.4 30.225 31.4 30.325 31.3L31.125 30.9C31.325 30.8 31.425 30.8 31.625 30.9C31.825 31 31.925 31.1 32.025 31.2L32.725 32.5C32.825 32.7 32.825 32.8 32.725 33C32.725 33.2 32.525 33.3 32.425 33.4L31.825 33.7C31.625 33.8 31.525 33.8 31.325 33.8C31.225 33.6 31.125 33.5 31.025 33.3ZM34.225 36.8C34.125 36.7 34.025 36.6 33.925 36.5C33.825 36.4 33.625 36.3 33.425 36.2C33.125 36.1 32.925 36 32.725 35.9C32.525 35.8 32.225 35.6 32.125 35.4C31.925 35.1 31.825 34.7 31.925 34.5C31.925 34.3 32.125 34.2 32.325 34C32.925 33.7 33.325 33.6 33.725 33.9C34.025 34.1 34.225 34.4 34.325 35C34.425 35.4 34.425 35.8 34.425 36.3L34.225 36.8ZM35.425 28.6C35.425 28.7 35.425 28.8 35.225 29C35.125 29.1 35.025 29.2 34.825 29.2H31.925C31.925 29 31.825 28.8 31.725 28.7L30.725 26.8C30.325 26 29.925 25.3 29.725 24.8H34.825C35.025 24.8 35.125 24.9 35.225 25C35.325 25.1 35.425 25.2 35.425 25.4V28.6Z" fill="white"/>
<path d="M67.4507 29.8564C67.4507 31.7249 67.257 33.3257 66.8696 34.6587C66.4937 35.9917 65.9696 37.1253 65.2974 38.0596C64.6366 38.9938 63.8789 39.7913 63.0244 40.4521C62.1813 41.1243 61.2926 41.7339 60.3584 42.2808C59.971 42.4972 59.6634 42.4232 59.4355 42.0586L57.5215 38.9995C57.2708 38.5894 57.3563 38.259 57.7778 38.0083C58.5184 37.5754 59.202 37.0399 59.8286 36.4019C60.4552 35.7524 60.9622 34.9093 61.3496 33.8726C61.737 32.8244 61.9307 31.4857 61.9307 29.8564V15.2275C61.9307 14.8971 61.9876 14.6465 62.1016 14.4756C62.6143 13.7236 63.332 12.9318 64.2549 12.1001C64.4258 11.9634 64.5739 11.895 64.6992 11.895C64.8359 11.895 64.9784 11.9634 65.1265 12.1001C65.6278 12.533 66.0493 12.9489 66.3911 13.3477C66.7329 13.735 67.0291 14.111 67.2798 14.4756C67.3937 14.6579 67.4507 14.9085 67.4507 15.2275V29.8564ZM78.2686 37.4272C74.2126 37.4272 72.1846 34.972 72.1846 30.0615L72.1675 21.3799C72.1675 21.1064 72.2244 20.8957 72.3384 20.7476C72.8169 20.1209 73.5176 19.443 74.4404 18.7139C74.5999 18.5999 74.7424 18.543 74.8677 18.543C75.0158 18.543 75.1582 18.5999 75.2949 18.7139C75.7848 19.0898 76.195 19.443 76.5254 19.7734C76.8672 20.1038 77.1577 20.4285 77.397 20.7476C77.5109 20.8957 77.5679 21.1064 77.5679 21.3799V29.583C77.5679 32.0553 78.5477 33.2915 80.5073 33.2915C81.4757 33.2915 82.2505 32.9554 82.8315 32.2832C83.4126 31.5996 83.7031 30.6768 83.7031 29.5146V21.3799C83.7031 21.1064 83.7601 20.8957 83.874 20.7476C84.3525 20.1209 85.0532 19.443 85.9761 18.7139C86.1356 18.5999 86.278 18.543 86.4033 18.543C86.5514 18.543 86.6938 18.5999 86.8306 18.7139C87.3205 19.0898 87.7306 19.443 88.061 19.7734C88.4028 20.1038 88.6934 20.4285 88.9326 20.7476C89.0465 20.8957 89.1035 21.1064 89.1035 21.3799V36.2139C89.1035 36.4303 89.0295 36.6183 88.8813 36.7778C88.7332 36.9259 88.5452 37 88.3174 37H85.7539C85.5716 37 85.4064 36.9772 85.2583 36.9316C85.1216 36.8747 84.9906 36.7721 84.8652 36.624L83.8057 35.2568H83.686C83.5037 35.5189 83.2189 35.8208 82.8315 36.1626C82.4556 36.5044 81.903 36.8006 81.1738 37.0513C80.4561 37.3019 79.4876 37.4272 78.2686 37.4272ZM98.2637 37.4272C96.5889 37.4272 95.2559 36.9601 94.2646 36.0259C93.2848 35.0802 92.7949 33.7814 92.7949 32.1294C92.7949 31.2749 92.9487 30.4831 93.2563 29.7539C93.5754 29.0133 94.1222 28.3639 94.897 27.8057C95.6831 27.236 96.7769 26.7803 98.1782 26.4385C99.591 26.0967 101.391 25.8973 103.579 25.8403C103.579 24.8035 103.317 24.0573 102.792 23.6016C102.28 23.1458 101.505 22.918 100.468 22.918C99.534 22.918 98.7707 23.0775 98.1782 23.3965C97.5858 23.7155 97.2155 23.932 97.0674 24.0459C96.9079 24.1826 96.7142 24.2339 96.4863 24.1997C96.1787 24.1541 95.8483 24.0744 95.4951 23.9604C95.1533 23.8465 94.783 23.7155 94.3843 23.5674C94.3273 23.5446 94.2646 23.5104 94.1963 23.4648C94.1279 23.4079 94.0881 23.3281 94.0767 23.2256C94.0767 23.1686 94.0824 23.1003 94.0938 23.0205C94.1051 22.9294 94.1336 22.7699 94.1792 22.542C94.2248 22.3141 94.2931 22.035 94.3843 21.7046C94.4754 21.3628 94.5609 21.1007 94.6406 20.9185C94.7432 20.7248 94.9141 20.5425 95.1533 20.3716C95.347 20.2121 95.9338 19.9557 96.9136 19.6025C97.8934 19.2493 99.3118 19.0728 101.169 19.0728C106.285 19.0728 108.842 21.5622 108.842 26.541V36.2139C108.842 36.4303 108.78 36.6183 108.654 36.7778C108.54 36.9259 108.341 37 108.056 37H105.493C105.31 37 105.145 36.9772 104.997 36.9316C104.86 36.8747 104.729 36.7721 104.604 36.624L103.544 35.2568H103.425C102.901 36.0202 102.194 36.5728 101.306 36.9146C100.428 37.2563 99.4144 37.4272 98.2637 37.4272ZM100.144 33.4624C101.192 33.4624 101.984 33.1947 102.519 32.6592C103.055 32.1237 103.396 31.5711 103.544 31.0015V29.1045C101.961 29.1045 100.77 29.2298 99.9727 29.4805C99.1865 29.7197 98.6624 30.0387 98.4004 30.4375C98.1383 30.8249 98.0073 31.2464 98.0073 31.7021C98.0073 32.363 98.2124 32.8244 98.6226 33.0864C99.0327 33.3371 99.5397 33.4624 100.144 33.4624ZM115.524 37.3589C115.285 37.4614 115.114 37.5127 115.012 37.5127C114.909 37.5127 114.801 37.4728 114.687 37.3931C114.425 37.2108 114.123 36.7664 113.781 36.0601C113.451 35.3423 113.286 34.2428 113.286 32.7617V12.9717C113.286 12.6982 113.343 12.4875 113.457 12.3394C113.935 11.7127 114.636 11.0348 115.559 10.3057C115.718 10.1917 115.861 10.1348 115.986 10.1348C116.134 10.1348 116.276 10.1917 116.413 10.3057C116.903 10.6816 117.313 11.0348 117.644 11.3652C117.985 11.6956 118.276 12.0203 118.515 12.3394C118.629 12.4875 118.686 12.6982 118.686 12.9717V31.7192C118.686 32.4712 118.749 33.1149 118.874 33.6504C118.999 34.1745 119.147 34.596 119.318 34.915C119.512 35.291 119.438 35.5588 119.096 35.7183L115.524 37.3589ZM131.76 37.4272C128.889 37.4272 126.616 36.6639 124.941 35.1372C123.266 33.6105 122.429 31.3376 122.429 28.3184C122.429 25.2194 123.295 22.9066 125.026 21.3799C126.77 19.8418 129.094 19.0728 131.999 19.0728C134.802 19.0728 137.046 19.8304 138.732 21.3457C140.419 22.8496 141.262 25.0713 141.262 28.0107C141.262 31.0755 140.419 33.4111 138.732 35.0176C137.046 36.624 134.722 37.4272 131.76 37.4272ZM131.931 33.2915C133.184 33.2915 134.13 32.9041 134.768 32.1294C135.406 31.3433 135.725 30.0046 135.725 28.1133C135.725 26.3132 135.4 25.0485 134.75 24.3193C134.112 23.5788 133.161 23.2085 131.896 23.2085C130.677 23.2085 129.715 23.6073 129.008 24.4048C128.313 25.1909 127.966 26.4727 127.966 28.25C127.966 30.1071 128.296 31.4116 128.957 32.1636C129.629 32.9155 130.62 33.2915 131.931 33.2915ZM150.336 36.0942C150.336 36.436 150.262 36.6753 150.114 36.812C149.978 36.9373 149.738 37 149.396 37H145.876C145.534 37 145.289 36.9373 145.141 36.812C145.004 36.6753 144.936 36.436 144.936 36.0942V12.9717C144.936 12.6982 144.993 12.4875 145.107 12.3394C145.585 11.7127 146.286 11.0348 147.209 10.3057C147.368 10.1917 147.511 10.1348 147.636 10.1348C147.784 10.1348 147.927 10.1917 148.063 10.3057C148.553 10.6816 148.964 11.0348 149.294 11.3652C149.636 11.6956 149.926 12.0203 150.166 12.3394C150.279 12.4875 150.336 12.6982 150.336 12.9717V26.3872H150.542C152.273 26.3872 153.447 26.0796 154.062 25.4644C154.689 24.8377 155.002 23.9718 155.002 22.8667V21.9438C155.002 21.6704 155.059 21.4596 155.173 21.3115C155.651 20.6849 156.352 20.007 157.275 19.2778C157.434 19.1639 157.577 19.1069 157.702 19.1069C157.85 19.1069 157.993 19.1639 158.129 19.2778C158.619 19.6538 159.029 20.007 159.36 20.3374C159.702 20.6678 159.992 20.9925 160.231 21.3115C160.345 21.4596 160.402 21.6704 160.402 21.9438V22.8667C160.402 23.5161 160.271 24.2339 160.009 25.02C159.759 25.8062 159.297 26.5011 158.625 27.105C157.953 27.7088 156.996 28.062 155.754 28.1646V28.25C156.711 28.6715 157.537 29.2298 158.232 29.9248C158.927 30.6198 159.508 31.366 159.975 32.1636C160.442 32.9497 160.801 33.7074 161.052 34.4365C161.314 35.1543 161.485 35.7638 161.564 36.2651C161.644 36.755 161.479 37 161.069 37H156.574C156.187 37 155.965 36.7664 155.908 36.2993C155.828 35.7638 155.651 35.1372 155.378 34.4194C155.116 33.6903 154.757 32.9782 154.301 32.2832C153.857 31.5882 153.316 31.0129 152.678 30.5571C152.051 30.09 151.339 29.8564 150.542 29.8564H150.336V36.0942ZM169.289 37.4272C167.614 37.4272 166.281 36.9601 165.29 36.0259C164.31 35.0802 163.82 33.7814 163.82 32.1294C163.82 31.2749 163.974 30.4831 164.282 29.7539C164.601 29.0133 165.148 28.3639 165.922 27.8057C166.708 27.236 167.802 26.7803 169.204 26.4385C170.616 26.0967 172.417 25.8973 174.604 25.8403C174.604 24.8035 174.342 24.0573 173.818 23.6016C173.305 23.1458 172.53 22.918 171.494 22.918C170.559 22.918 169.796 23.0775 169.204 23.3965C168.611 23.7155 168.241 23.932 168.093 24.0459C167.933 24.1826 167.74 24.2339 167.512 24.1997C167.204 24.1541 166.874 24.0744 166.521 23.9604C166.179 23.8465 165.808 23.7155 165.41 23.5674C165.353 23.5446 165.29 23.5104 165.222 23.4648C165.153 23.4079 165.113 23.3281 165.102 23.2256C165.102 23.1686 165.108 23.1003 165.119 23.0205C165.131 22.9294 165.159 22.7699 165.205 22.542C165.25 22.3141 165.319 22.035 165.41 21.7046C165.501 21.3628 165.586 21.1007 165.666 20.9185C165.769 20.7248 165.939 20.5425 166.179 20.3716C166.372 20.2121 166.959 19.9557 167.939 19.6025C168.919 19.2493 170.337 19.0728 172.194 19.0728C177.31 19.0728 179.868 21.5622 179.868 26.541V36.2139C179.868 36.4303 179.805 36.6183 179.68 36.7778C179.566 36.9259 179.366 37 179.082 37H176.518C176.336 37 176.171 36.9772 176.022 36.9316C175.886 36.8747 175.755 36.7721 175.629 36.624L174.57 35.2568H174.45C173.926 36.0202 173.22 36.5728 172.331 36.9146C171.454 37.2563 170.44 37.4272 169.289 37.4272ZM171.169 33.4624C172.217 33.4624 173.009 33.1947 173.544 32.6592C174.08 32.1237 174.422 31.5711 174.57 31.0015V29.1045C172.986 29.1045 171.796 29.2298 170.998 29.4805C170.212 29.7197 169.688 30.0387 169.426 30.4375C169.164 30.8249 169.033 31.2464 169.033 31.7021C169.033 32.363 169.238 32.8244 169.648 33.0864C170.058 33.3371 170.565 33.4624 171.169 33.4624Z" fill="white"/>
</svg>
