<svg width="48" height="43" viewBox="0 0 48 43" fill="none" xmlns="http://www.w3.org/2000/svg">
<path d="M46.7001 18.1L38 3C37 1.2 35 0 32.8 0H15.4C13.2 0 11.3 1.1 10.2 3L1.50005 18.1C0.400049 20 0.400049 22.2 1.50005 24.1L10.2 39.2C11.3 41.1 13.2 42.2 15.4 42.2H32.8C34.9 42.2 36.9 41.1 38 39.2L46.7001 24.1C47.8001 22.3 47.8001 20 46.7001 18.1ZM12.3 24C12.2 23.9 12.1 23.8 12.1 23.6V20.3C12.1 20.1 12.2 20 12.3 19.9C12.4 19.8 12.5 19.7 12.7 19.7H18.4L15.9 24H12.7C12.5 24.1 12.4 24.1 12.3 24ZM16.2 30.2L14.4 31.4C14.3 31.5 14.2 31.5 14.1 31.5C14 31.5 14 31.3 14 31.2L14.2 29.1C14.2 28.9 14.3 28.9 14.4 28.8C14.5 28.7 14.6 28.7 14.7 28.8L16.1 29.6C16.2 29.7 16.3 29.8 16.3 29.9C16.4 30 16.4 30.1 16.2 30.2ZM17.1 29.1C16.9 29.2 16.8001 29.1 16.7001 29L15.3 28.2C15.1 28.1 15 28 15 27.9C15 27.8 15 27.6 15.1 27.5L21.6 16.1C21.7 16 21.8 15.9 21.9 15.9C22.1 15.9 22.2 15.9 22.3 16L23.7001 16.8C23.8001 16.9 23.9 17 24 17.1C24 17.3 24 17.4 23.9 17.5L17.3 28.8C17.3 28.9 17.2 29 17.1 29.1ZM21.7001 24.1L24.2001 19.8H25.6L27.6 24.1H21.7001ZM29.8 25.4C29.6 25.3 28.9 24 27.8 21.7C27.1 20.1 26.4001 18.5 25.7001 16.9L25.2001 15.7C24.5001 14.2 24 13.1 23.8 12.4C23.3 11.2 23.3 10.5 23.5 10.3C23.7 10.2 24 10.5 24.4 11.2C24.7 11.6 25.2 12.4 25.8 13.6C26.4 14.6 26.8 15.3 27.1 15.7C27.9 16.9 29.3 19.4 31.3 23.3L31.6 23.9C31.8 24.2 31.8 24.4 31.5 24.8C31.3 25 31.1001 25.2 30.9001 25.3L30.7001 25.4C30.5001 25.5 30.4 25.5 30.3 25.6C30.2 25.6 30 25.5 29.8 25.4ZM31.6 28.4L30.8 27C30.7 26.8 30.7001 26.7 30.7001 26.6C30.8001 26.4 30.9 26.4 31 26.3L31.8 25.9C32 25.8 32.1 25.8 32.3 25.9C32.5 26 32.6001 26.1 32.7001 26.2L33.4001 27.5C33.5001 27.7 33.5001 27.8 33.4001 28C33.4001 28.2 33.2 28.3 33.1 28.4L32.5 28.7C32.3 28.8 32.2 28.8 32 28.8C31.8 28.6 31.7 28.5 31.6 28.4ZM34.8 31.9C34.7 31.8 34.6 31.7 34.5 31.6C34.4 31.5 34.2 31.4 34 31.3C33.7 31.2 33.5 31.1 33.3 31C33.1 30.9 32.8001 30.7 32.7001 30.5C32.5001 30.2 32.4 29.8 32.5 29.6C32.5 29.4 32.7001 29.3 32.9001 29.1C33.5001 28.8 33.9 28.7 34.3 29C34.6 29.2 34.8001 29.5 34.9001 30.1C35.0001 30.5 35 30.9 35 31.4L34.8 31.9ZM36 23.6C36 23.7 36 23.8 35.8 24C35.7 24.1 35.6001 24.2 35.4001 24.2H32.5C32.5 24 32.4 23.8 32.3 23.7L31.3 21.8C30.9 21 30.5 20.3 30.3 19.8H35.4001C35.6001 19.8 35.7 19.9 35.8 20C35.9 20.1 36 20.2 36 20.4V23.6Z" fill="#2C84FF"/>
</svg>
